<?xml version="1.0" encoding="utf-8"?>
<!-- Generator: Adobe Illustrator 16.0.0, SVG Export Plug-In . SVG Version: 6.00 Build 0)  -->
<!DOCTYPE svg PUBLIC "-//W3C//DTD SVG 1.1//EN" "http://www.w3.org/Graphics/SVG/1.1/DTD/svg11.dtd">
<svg version="1.1" id="Layer_1" xmlns="http://www.w3.org/2000/svg" xmlns:xlink="http://www.w3.org/1999/xlink" x="0px" y="0px"
	 width="1250px" height="1250px" viewBox="0 0 1250 1250" enable-background="new 0 0 1250 1250" xml:space="preserve">
<g>
	
		<radialGradient id="SVGID_1_" cx="-1831.4336" cy="-203.0503" r="0.8033" gradientTransform="matrix(1099.9821 0 0 1069.7073 2014974.25 217517.25)" gradientUnits="userSpaceOnUse">
		<stop  offset="0" style="stop-color:#2F4339;stop-opacity:0.98"/>
		<stop  offset="1" style="stop-color:#091912"/>
	</radialGradient>
	<path fill="url(#SVGID_1_)" d="M47.29,58.13h1160.742v1133.836H47.29V58.13L47.29,58.13z"/>
	<path fill="#5FB66B" d="M63.47,73.296h1124.333V1171.74H63.47V73.296L63.47,73.296z M6.637,1228.572h1237.797V21.722H6.637
		V1228.572z"/>
	<path fill="#5FB66B" d="M593.984,856.021v-69.578c0-6.268-2.628-6.268-5.662-4.043c-24.676,8.291-47.53,10.924-81.512,10.924
		c-74.832,0-166.048-47.532-166.048-208.326c0-130.047,66.54-205.688,166.048-205.688c35.6,0,65.938,6.267,86.567,15.977
		c2.628,1.011,6.27,1.011,6.27-6.272v-73.417c0-5.056-1.013-7.685-5.259-9.302c-15.979-7.685-46.923-11.934-88.184-11.934
		c-158.364,0-261.918,117.51-261.918,292.46c0,204.276,117.511,290.841,250.189,290.841c36.606,0,72.204-3.641,94.453-12.947
		C592.568,863.908,593.984,861.277,593.984,856.021L593.984,856.021z M759.627,532.211c13.957-4.047,26.904-6.675,44.9-6.675
		c64.524,0,102.145,45.305,102.145,130.049c0,103.756-60.276,145.016-118.119,145.016c-9.307,0-20.63-1.013-28.317-3.64
		L759.627,532.211L759.627,532.211z M814.845,444.636c-60.271,0-111.849,18-146.024,28.923c-1.619,1.008-7.285,6.268-7.285,7.278
		c1.619,11.934,5.059,31.956,5.059,41.262v479.542c0,4.045,3.641,5.26,8.291,5.26l80.906-7.688c4.042-1.008,3.635-4.651,3.635-7.683
		V878.675c7.688,1.011,17.604,0,24.27,0c109.42,0,216.617-75.845,216.617-229.562C1000.916,532.211,935.592,444.636,814.845,444.636
		L814.845,444.636z"/>
</g>
</svg>
