<?xml version="1.0" standalone="no"?>
<!DOCTYPE svg PUBLIC "-//W3C//DTD SVG 20010904//EN"
 "http://www.w3.org/TR/2001/REC-SVG-20010904/DTD/svg10.dtd">
<svg version="1.0" xmlns="http://www.w3.org/2000/svg"
 width="560.000000pt" height="560.000000pt" viewBox="0 0 560.000000 560.000000"
 preserveAspectRatio="xMidYMid meet">
<metadata>
Created by potrace 1.14, written by Peter Selinger 2001-2017
</metadata>
<g transform="translate(0.000000,560.000000) scale(0.100000,-0.100000)"
fill="#000000" stroke="none">
<path d="M2658 5235 c-1 -2 -21 -4 -43 -6 -22 -1 -44 -5 -49 -7 -5 -3 -23 -7
-40 -8 -32 -4 -71 -11 -71 -14 0 -1 -10 -3 -23 -6 -40 -7 -156 -46 -169 -57
-7 -5 -13 -7 -13 -4 0 3 -42 -15 -92 -40 -51 -25 -94 -45 -96 -44 -1 1 -8 -3
-15 -9 -10 -9 -96 -71 -181 -130 -46 -32 -189 -179 -238 -245 -29 -38 -55 -72
-58 -75 -5 -5 -11 -14 -78 -132 -29 -51 -56 -85 -79 -99 -73 -45 -212 -165
-325 -280 -105 -107 -290 -336 -306 -378 -3 -9 -8 -18 -12 -21 -8 -7 -80 -130
-80 -137 0 -3 -10 -22 -22 -42 -13 -20 -23 -38 -23 -41 -1 -3 -13 -32 -29 -65
-37 -80 -40 -88 -71 -175 -15 -41 -29 -82 -32 -90 -7 -16 -11 -31 -17 -57 -3
-10 -5 -18 -7 -18 -1 0 -3 -9 -5 -20 -1 -11 -12 -56 -22 -100 -11 -44 -23 -98
-26 -120 -15 -94 -24 -161 -25 -175 0 -8 -3 -44 -6 -80 -7 -76 -6 -69 -6 -140
1 -30 1 -62 0 -70 -1 -28 9 -186 16 -231 8 -62 34 -212 39 -234 2 -5 6 -23 10
-40 20 -82 77 -267 96 -310 5 -11 27 -63 50 -115 38 -84 56 -121 120 -235 14
-25 42 -69 125 -193 24 -36 155 -195 205 -247 111 -118 255 -238 400 -336 123
-82 125 -83 190 -115 30 -15 57 -29 60 -33 8 -10 113 -57 210 -94 36 -13 74
-28 85 -32 11 -5 22 -9 25 -10 10 -2 126 -37 150 -45 36 -12 121 -30 153 -32
15 -1 27 -5 27 -9 0 -4 8 -6 17 -5 10 2 33 -1 53 -5 77 -18 174 -24 370 -24
195 0 273 5 375 24 25 5 45 6 45 3 0 -2 6 1 13 7 8 6 16 8 19 5 3 -3 26 0 49
6 24 7 52 14 62 16 106 20 488 160 533 195 6 5 37 23 70 40 32 18 99 58 148
90 49 33 93 59 98 59 4 0 8 4 8 8 0 4 23 25 51 46 65 48 81 62 136 113 24 24
48 43 53 43 5 0 10 4 12 9 2 5 40 49 85 97 82 89 135 151 163 194 8 12 21 28
28 36 6 7 12 17 12 23 0 6 4 11 8 11 5 0 15 12 23 28 8 15 17 29 20 32 10 8
91 149 114 197 11 24 23 43 28 43 4 0 7 6 7 13 0 7 12 38 26 68 76 158 157
423 179 579 9 66 16 110 21 134 3 17 16 255 16 291 -2 76 -14 237 -23 296 -6
40 -12 83 -13 94 -1 11 -6 34 -9 50 -4 17 -9 39 -11 50 -3 11 -9 40 -15 65 -7
25 -14 54 -16 66 -18 79 -86 264 -142 381 -19 40 -34 76 -34 80 0 4 -6 15 -13
23 -6 8 -22 35 -36 60 -13 25 -28 48 -34 52 -6 4 -8 8 -4 8 10 0 -89 145 -167
245 -133 170 -325 354 -485 464 -40 28 -70 51 -66 51 4 0 -1 12 -12 28 -11 15
-19 30 -18 34 2 9 -116 185 -155 233 -293 349 -694 540 -1142 543 -80 0 -147
-1 -149 -3z"/>
</g>
</svg>
